<svg xmlns="http://www.w3.org/2000/svg" viewBox="0 0 128 128" fill="#4caf50">
  <path d="M79.8,8.2c-2.7-1.1-5.7-1-8.4-0.1c-11.2,3.6-21,11.7-27,21.7c-5.9,9.9-7.9,21.7-6,33.1c-0.1,0.2-0.2,0.3-0.3,0.5 c-3.8,3.8-3.8,10,0,13.8s10,3.8,13.8,0c0.1-0.1,0.2-0.2,0.3-0.3c10.4-0.4,20.5-3.8,28.8-9.9c8.2-6,14.6-14.3,18.2-24.1 C101.3,31.1,93.4,14.8,79.8,8.2z M49.5,84.2c-1.3,1.3-3.4,1.3-4.7,0c-1.3-1.3-1.3-3.4,0-4.7c1.3-1.3,3.4-1.3,4.7,0 C50.8,80.8,50.8,82.9,49.5,84.2z"/>
  <path d="M84,54.8l-12.3,12.3c-1,1-2.6,1-3.5,0L55.8,54.8c-1.5-1.5-1.5-3.8,0-5.3s3.8-1.5,5.3,0l4.2,4.2V23.3 c0-2.1,1.7-3.8,3.8-3.8s3.8,1.7,3.8,3.8v30.4l4.2-4.2c1.5-1.5,3.8-1.5,5.3,0S85.5,53.3,84,54.8z"/>
</svg>